# xmcd
#
# Track frame offsets: 
#        150
#        17260
#        39227
#        56342
#
# Disc length: 1041 seconds
#
# Revision: 0
# Processed by: cddbd v1.5.2PL0 Copyright (c) Steve Scherf et al.
# Submitted via: ExactAudioCopy v1.0b3
#
DISCID=1e040f04
DTITLE=ちあきなおみ - 喝采／雨に濡れた慕情 TECA-1040
DYEAR=1900
DGENRE=Blues
TTITLE0=喝采
TTITLE1=雨に濡れた慕情
TTITLE2=喝采＜オリジナル・カラオケ＞
TTITLE3=雨に濡れた慕情＜オリジナル・カラオケ＞
EXTD=
EXTT0=
EXTT1=
EXTT2=
EXTT3=
PLAYORDER=
